{
	"patcher" : 	{
		"fileversion" : 1,
		"appversion" : 		{
			"major" : 7,
			"minor" : 3,
			"revision" : 4,
			"architecture" : "x86",
			"modernui" : 1
		}
,
		"openrect" : [ 20.0, 20.0, 405.0, 267.0 ],
		"bglocked" : 0,
		"openinpresentation" : 1,
		"default_fontsize" : 12.0,
		"default_fontface" : 0,
		"default_fontname" : "Arial",
		"gridonopen" : 2,
		"gridsize" : [ 15.0, 15.0 ],
		"gridsnaponopen" : 2,
		"objectsnaponopen" : 0,
		"statusbarvisible" : 2,
		"toolbarvisible" : 1,
		"lefttoolbarpinned" : 0,
		"toptoolbarpinned" : 0,
		"righttoolbarpinned" : 0,
		"bottomtoolbarpinned" : 0,
		"toolbars_unpinned_last_save" : 0,
		"tallnewobj" : 0,
		"boxanimatetime" : 200,
		"enablehscroll" : 1,
		"enablevscroll" : 1,
		"devicewidth" : 0.0,
		"description" : "",
		"digest" : "",
		"tags" : "",
		"style" : "",
		"subpatcher_template" : "",
		"boxes" : [ 			{
				"box" : 				{
					"args" : [ "brcosa" ],
					"bgmode" : 0,
					"border" : 0,
					"clickthrough" : 0,
					"enablehscroll" : 0,
					"enablevscroll" : 0,
					"id" : "obj-26",
					"lockeddragscroll" : 0,
					"maxclass" : "bpatcher",
					"name" : "gl_cc_brcosa.module.maxpat",
					"numinlets" : 2,
					"numoutlets" : 2,
					"offset" : [ 0.0, 0.0 ],
					"outlettype" : [ "", "" ],
					"patching_rect" : [ 300.0, 420.000031, 300.0, 70.0 ],
					"presentation_rect" : [ 574.0, 453.0, 300.0, 70.0 ],
					"viewvisibility" : 1
				}

			}
, 			{
				"box" : 				{
					"args" : [ "brcosa2" ],
					"bgmode" : 0,
					"border" : 0,
					"clickthrough" : 0,
					"enablehscroll" : 0,
					"enablevscroll" : 0,
					"id" : "obj-24",
					"lockeddragscroll" : 0,
					"maxclass" : "bpatcher",
					"name" : "gl_cc_brcosa.module.maxpat",
					"numinlets" : 2,
					"numoutlets" : 2,
					"offset" : [ 0.0, 0.0 ],
					"outlettype" : [ "", "" ],
					"patching_rect" : [ 1065.0, 540.0, 300.0, 70.0 ],
					"presentation_rect" : [ 1008.0, 541.0, 300.0, 70.0 ],
					"viewvisibility" : 1
				}

			}
, 			{
				"box" : 				{
					"args" : [ "brightness" ],
					"bgmode" : 0,
					"border" : 0,
					"clickthrough" : 0,
					"enablehscroll" : 0,
					"enablevscroll" : 0,
					"id" : "obj-22",
					"lockeddragscroll" : 0,
					"maxclass" : "bpatcher",
					"name" : "gl_motion.module.maxpat",
					"numinlets" : 1,
					"numoutlets" : 2,
					"offset" : [ 0.0, 0.0 ],
					"outlettype" : [ "", "" ],
					"patching_rect" : [ 1065.0, 615.0, 300.0, 105.0 ],
					"presentation_rect" : [ 0.0, 0.0, 300.0, 105.0 ],
					"viewvisibility" : 1
				}

			}
, 			{
				"box" : 				{
					"args" : [ "scale2" ],
					"bgmode" : 0,
					"border" : 0,
					"clickthrough" : 0,
					"enablehscroll" : 0,
					"enablevscroll" : 0,
					"id" : "obj-17",
					"lockeddragscroll" : 0,
					"maxclass" : "bpatcher",
					"name" : "gl_rota.module.maxpat",
					"numinlets" : 1,
					"numoutlets" : 2,
					"offset" : [ 0.0, 0.0 ],
					"outlettype" : [ "", "" ],
					"patching_rect" : [ 1065.0, 420.000031, 300.0, 105.0 ],
					"presentation" : 1,
					"presentation_rect" : [ 995.0, 403.0, 300.0, 105.0 ],
					"viewvisibility" : 1
				}

			}
, 			{
				"box" : 				{
					"args" : [ "scale1" ],
					"bgmode" : 0,
					"border" : 0,
					"clickthrough" : 0,
					"enablehscroll" : 0,
					"enablevscroll" : 0,
					"id" : "obj-13",
					"lockeddragscroll" : 0,
					"maxclass" : "bpatcher",
					"name" : "gl_rota.module.maxpat",
					"numinlets" : 1,
					"numoutlets" : 2,
					"offset" : [ 0.0, 0.0 ],
					"outlettype" : [ "", "" ],
					"patching_rect" : [ 705.0, 795.0, 300.0, 105.0 ],
					"presentation" : 1,
					"presentation_rect" : [ 653.0, 402.0, 300.0, 105.0 ],
					"viewvisibility" : 1
				}

			}
, 			{
				"box" : 				{
					"id" : "obj-12",
					"maxclass" : "newobj",
					"numinlets" : 1,
					"numoutlets" : 2,
					"outlettype" : [ "jit_matrix", "" ],
					"patching_rect" : [ 705.0, 990.0, 300.0, 22.0 ],
					"style" : "",
					"text" : "jit.gl.videoplane default @scale 0.3 0.2 @position 0. 0."
				}

			}
, 			{
				"box" : 				{
					"id" : "obj-11",
					"maxclass" : "newobj",
					"numinlets" : 1,
					"numoutlets" : 2,
					"outlettype" : [ "jit_matrix", "" ],
					"patching_rect" : [ 1065.0, 735.0, 306.0, 22.0 ],
					"style" : "",
					"text" : "jit.gl.videoplane default @scale 0.3 0.2 @position 0.8 0."
				}

			}
, 			{
				"box" : 				{
					"id" : "obj-10",
					"linecount" : 4,
					"maxclass" : "newobj",
					"numinlets" : 1,
					"numoutlets" : 2,
					"outlettype" : [ "jit_matrix", "" ],
					"patching_rect" : [ 179.999985, 795.0, 105.0, 62.0 ],
					"style" : "",
					"text" : "jit.gl.videoplane default @scale 0.3 0.2 @position -0.8 0."
				}

			}
, 			{
				"box" : 				{
					"id" : "obj-63",
					"maxclass" : "newobj",
					"numinlets" : 1,
					"numoutlets" : 3,
					"outlettype" : [ "", "", "" ],
					"patching_rect" : [ 1605.0, 525.0, 140.0, 22.0 ],
					"style" : "",
					"text" : "j.receive qom_s/out/final"
				}

			}
, 			{
				"box" : 				{
					"id" : "obj-64",
					"maxclass" : "newobj",
					"numinlets" : 1,
					"numoutlets" : 4,
					"outlettype" : [ "", "", "", "" ],
					"patching_rect" : [ 1605.0, 570.0, 146.0, 22.0 ],
					"style" : "",
					"text" : "j.remote organ/18pcs/ppc"
				}

			}
, 			{
				"box" : 				{
					"contdata" : 1,
					"id" : "obj-61",
					"maxclass" : "multislider",
					"numinlets" : 1,
					"numoutlets" : 2,
					"outlettype" : [ "", "" ],
					"parameter_enable" : 1,
					"patching_rect" : [ 690.0, 1035.0, 165.0, 75.0 ],
					"presentation" : 1,
					"presentation_rect" : [ 358.0, 934.0, 240.0, 75.0 ],
					"saved_attribute_attributes" : 					{
						"valueof" : 						{
							"parameter_longname" : "multislider[1]",
							"parameter_shortname" : "multislider",
							"parameter_type" : 3,
							"parameter_invisible" : 1
						}

					}
,
					"setminmax" : [ 0.0, 1.0 ],
					"setstyle" : 1,
					"settype" : 0,
					"size" : 18,
					"style" : "",
					"varname" : "multislider[1]"
				}

			}
, 			{
				"box" : 				{
					"id" : "obj-58",
					"maxclass" : "newobj",
					"numinlets" : 1,
					"numoutlets" : 1,
					"outlettype" : [ "" ],
					"patching_rect" : [ 495.0, 960.0, 90.0, 22.0 ],
					"presentation_rect" : [ 452.0, 792.0, 0.0, 0.0 ],
					"style" : "",
					"text" : "vexpr $f1 > 0.2"
				}

			}
, 			{
				"box" : 				{
					"id" : "obj-59",
					"maxclass" : "newobj",
					"numinlets" : 1,
					"numoutlets" : 4,
					"outlettype" : [ "", "", "", "" ],
					"patching_rect" : [ 495.0, 1035.0, 177.0, 22.0 ],
					"style" : "",
					"text" : "j.remote organ/18pcs/solenoids"
				}

			}
, 			{
				"box" : 				{
					"id" : "obj-60",
					"maxclass" : "newobj",
					"numinlets" : 2,
					"numoutlets" : 2,
					"outlettype" : [ "", "" ],
					"patching_rect" : [ 495.0, 990.0, 63.0, 22.0 ],
					"style" : "",
					"text" : "zl slice 18"
				}

			}
, 			{
				"box" : 				{
					"id" : "obj-55",
					"maxclass" : "newobj",
					"numinlets" : 1,
					"numoutlets" : 1,
					"outlettype" : [ "" ],
					"patching_rect" : [ 495.0, 855.0, 98.0, 22.0 ],
					"presentation_rect" : [ 449.0, 687.0, 0.0, 0.0 ],
					"style" : "",
					"text" : "vexpr ($f1 / 255)"
				}

			}
, 			{
				"box" : 				{
					"fontname" : "Arial",
					"fontsize" : 12.0,
					"id" : "obj-56",
					"maxclass" : "newobj",
					"numinlets" : 1,
					"numoutlets" : 2,
					"outlettype" : [ "", "" ],
					"patching_rect" : [ 495.0, 825.0, 43.0, 22.0 ],
					"presentation_rect" : [ 449.0, 657.0, 0.0, 0.0 ],
					"style" : "",
					"text" : "jit.spill"
				}

			}
, 			{
				"box" : 				{
					"id" : "obj-54",
					"maxclass" : "newobj",
					"numinlets" : 1,
					"numoutlets" : 1,
					"outlettype" : [ "jit_matrix" ],
					"patching_rect" : [ 495.0, 795.0, 142.0, 22.0 ],
					"style" : "",
					"text" : "j.gl_readback% 6 3 luma"
				}

			}
, 			{
				"box" : 				{
					"id" : "obj-47",
					"maxclass" : "newobj",
					"numinlets" : 1,
					"numoutlets" : 1,
					"outlettype" : [ "" ],
					"patching_rect" : [ 300.0, 960.0, 90.0, 22.0 ],
					"style" : "",
					"text" : "vexpr $f1 > 0.2"
				}

			}
, 			{
				"box" : 				{
					"id" : "obj-41",
					"maxclass" : "newobj",
					"numinlets" : 1,
					"numoutlets" : 4,
					"outlettype" : [ "", "", "", "" ],
					"patching_rect" : [ 300.0, 1035.0, 171.0, 22.0 ],
					"style" : "",
					"text" : "j.remote organ/8pcs/solenoids"
				}

			}
, 			{
				"box" : 				{
					"id" : "obj-39",
					"maxclass" : "newobj",
					"numinlets" : 2,
					"numoutlets" : 2,
					"outlettype" : [ "", "" ],
					"patching_rect" : [ 300.0, 990.0, 57.0, 22.0 ],
					"style" : "",
					"text" : "zl slice 8"
				}

			}
, 			{
				"box" : 				{
					"id" : "obj-4",
					"maxclass" : "newobj",
					"numinlets" : 1,
					"numoutlets" : 3,
					"outlettype" : [ "", "", "" ],
					"patching_rect" : [ 1440.0, 525.0, 137.0, 22.0 ],
					"style" : "",
					"text" : "j.receive qom_l/out/final"
				}

			}
, 			{
				"box" : 				{
					"id" : "obj-3",
					"maxclass" : "newobj",
					"numinlets" : 1,
					"numoutlets" : 4,
					"outlettype" : [ "", "", "", "" ],
					"patching_rect" : [ 1440.0, 570.0, 139.0, 22.0 ],
					"style" : "",
					"text" : "j.remote organ/8pcs/ppc"
				}

			}
, 			{
				"box" : 				{
					"args" : [ "qom_s" ],
					"bgmode" : 0,
					"border" : 0,
					"clickthrough" : 0,
					"enablehscroll" : 0,
					"enablevscroll" : 0,
					"id" : "obj-21",
					"lockeddragscroll" : 0,
					"maxclass" : "bpatcher",
					"name" : "j.nav.scale.module.maxpat",
					"numinlets" : 2,
					"numoutlets" : 2,
					"offset" : [ 0.0, 0.0 ],
					"outlettype" : [ "", "" ],
					"patching_rect" : [ 1605.0, 270.000031, 150.0, 245.0 ],
					"presentation_rect" : [ 0.0, 0.0, 150.0, 245.0 ],
					"viewvisibility" : 1
				}

			}
, 			{
				"box" : 				{
					"args" : [ "qom_l" ],
					"bgmode" : 0,
					"border" : 0,
					"clickthrough" : 0,
					"enablehscroll" : 0,
					"enablevscroll" : 0,
					"id" : "obj-15",
					"lockeddragscroll" : 0,
					"maxclass" : "bpatcher",
					"name" : "j.nav.scale.module.maxpat",
					"numinlets" : 2,
					"numoutlets" : 2,
					"offset" : [ 0.0, 0.0 ],
					"outlettype" : [ "", "" ],
					"patching_rect" : [ 1440.0, 270.000031, 150.0, 245.0 ],
					"presentation_rect" : [ 0.0, 0.0, 150.0, 245.0 ],
					"viewvisibility" : 1
				}

			}
, 			{
				"box" : 				{
					"id" : "obj-8",
					"maxclass" : "newobj",
					"numinlets" : 1,
					"numoutlets" : 3,
					"outlettype" : [ "", "", "" ],
					"patching_rect" : [ 1440.0, 225.000015, 143.0, 22.0 ],
					"style" : "",
					"text" : "j.receive gl_motion/mass"
				}

			}
, 			{
				"box" : 				{
					"id" : "obj-5",
					"maxclass" : "newobj",
					"numinlets" : 1,
					"numoutlets" : 1,
					"outlettype" : [ "" ],
					"patching_rect" : [ 300.0, 75.000023, 72.0, 22.0 ],
					"style" : "",
					"text" : "loadmess 1"
				}

			}
, 			{
				"box" : 				{
					"id" : "obj-48",
					"maxclass" : "newobj",
					"numinlets" : 2,
					"numoutlets" : 1,
					"outlettype" : [ "int" ],
					"patching_rect" : [ 330.0, 585.0, 29.5, 22.0 ],
					"style" : "",
					"text" : "!- 1"
				}

			}
, 			{
				"box" : 				{
					"id" : "obj-36",
					"maxclass" : "message",
					"numinlets" : 2,
					"numoutlets" : 1,
					"outlettype" : [ "" ],
					"patching_rect" : [ 330.0, 615.0, 92.0, 22.0 ],
					"style" : "",
					"text" : "data/bypass $1"
				}

			}
, 			{
				"box" : 				{
					"id" : "obj-29",
					"maxclass" : "message",
					"numinlets" : 2,
					"numoutlets" : 1,
					"outlettype" : [ "" ],
					"patching_rect" : [ 465.0, 105.000023, 29.5, 22.0 ],
					"style" : "",
					"text" : "1"
				}

			}
, 			{
				"box" : 				{
					"id" : "obj-19",
					"maxclass" : "newobj",
					"numinlets" : 0,
					"numoutlets" : 1,
					"outlettype" : [ "" ],
					"patching_rect" : [ 465.0, 75.000023, 155.0, 22.0 ],
					"style" : "",
					"text" : "j.initialized /gl_motion 1000"
				}

			}
, 			{
				"box" : 				{
					"id" : "obj-7",
					"maxclass" : "newobj",
					"numinlets" : 0,
					"numoutlets" : 0,
					"patcher" : 					{
						"fileversion" : 1,
						"appversion" : 						{
							"major" : 7,
							"minor" : 3,
							"revision" : 4,
							"architecture" : "x86",
							"modernui" : 1
						}
,
						"rect" : [ 59.0, 104.0, 640.0, 480.0 ],
						"bglocked" : 0,
						"openinpresentation" : 0,
						"default_fontsize" : 12.0,
						"default_fontface" : 0,
						"default_fontname" : "Arial",
						"gridonopen" : 1,
						"gridsize" : [ 15.0, 15.0 ],
						"gridsnaponopen" : 1,
						"objectsnaponopen" : 1,
						"statusbarvisible" : 2,
						"toolbarvisible" : 1,
						"lefttoolbarpinned" : 0,
						"toptoolbarpinned" : 0,
						"righttoolbarpinned" : 0,
						"bottomtoolbarpinned" : 0,
						"toolbars_unpinned_last_save" : 0,
						"tallnewobj" : 0,
						"boxanimatetime" : 200,
						"enablehscroll" : 1,
						"enablevscroll" : 1,
						"devicewidth" : 0.0,
						"description" : "",
						"digest" : "",
						"tags" : "",
						"style" : "",
						"subpatcher_template" : "",
						"boxes" : [ 							{
								"box" : 								{
									"id" : "obj-4",
									"maxclass" : "message",
									"numinlets" : 2,
									"numoutlets" : 1,
									"outlettype" : [ "" ],
									"patching_rect" : [ 331.0, 289.0, 708.0, 22.0 ],
									"style" : "",
									"text" : "SSD_1TB:/Users/tml/Documents/GitHub/organism/src/max/camera/candle.cues.txt"
								}

							}
, 							{
								"box" : 								{
									"id" : "obj-3",
									"maxclass" : "message",
									"numinlets" : 2,
									"numoutlets" : 1,
									"outlettype" : [ "" ],
									"patching_rect" : [ 322.0, 168.714294, 708.0, 22.0 ],
									"style" : "",
									"text" : "SSD_1TB:/Users/tml/Documents/GitHub/organism/src/max/camera/candle.cues.txt"
								}

							}
, 							{
								"box" : 								{
									"fontname" : "Arial",
									"fontsize" : 12.0,
									"id" : "obj-16",
									"maxclass" : "message",
									"numinlets" : 2,
									"numoutlets" : 1,
									"outlettype" : [ "" ],
									"patching_rect" : [ 100.0, 265.0, 47.0, 22.0 ],
									"style" : "",
									"text" : "default"
								}

							}
, 							{
								"box" : 								{
									"fontface" : 0,
									"fontname" : "Arial",
									"fontsize" : 12.0,
									"id" : "obj-13",
									"maxclass" : "newobj",
									"numinlets" : 1,
									"numoutlets" : 1,
									"outlettype" : [ "" ],
									"patching_rect" : [ 100.0, 289.0, 155.0, 22.0 ],
									"style" : "",
									"text" : "j.send /cue_manager/recall"
								}

							}
, 							{
								"box" : 								{
									"fontface" : 0,
									"fontname" : "Arial",
									"fontsize" : 12.0,
									"id" : "obj-12",
									"maxclass" : "newobj",
									"numinlets" : 1,
									"numoutlets" : 3,
									"outlettype" : [ "", "", "" ],
									"patching_rect" : [ 100.0, 238.0, 193.0, 22.0 ],
									"style" : "",
									"text" : "j.receive /cue_manager/read/done"
								}

							}
, 							{
								"box" : 								{
									"fontface" : 0,
									"fontname" : "Arial",
									"fontsize" : 12.0,
									"id" : "obj-11",
									"maxclass" : "newobj",
									"numinlets" : 1,
									"numoutlets" : 1,
									"outlettype" : [ "" ],
									"patching_rect" : [ 100.0, 209.714294, 168.0, 22.0 ],
									"style" : "",
									"text" : "j.send /cue_manager/file/path"
								}

							}
, 							{
								"box" : 								{
									"fontname" : "Arial",
									"fontsize" : 12.0,
									"id" : "obj-6",
									"maxclass" : "newobj",
									"numinlets" : 2,
									"numoutlets" : 2,
									"outlettype" : [ "", "" ],
									"patching_rect" : [ 100.0, 172.914276, 173.0, 22.0 ],
									"style" : "",
									"text" : "combine PATH candle.cues.txt"
								}

							}
, 							{
								"box" : 								{
									"fontface" : 0,
									"fontname" : "Arial",
									"fontsize" : 12.0,
									"id" : "obj-10",
									"maxclass" : "newobj",
									"numinlets" : 0,
									"numoutlets" : 1,
									"outlettype" : [ "" ],
									"patching_rect" : [ 50.0, 100.0, 169.0, 22.0 ],
									"style" : "",
									"text" : "j.initialized /cue_manager 400"
								}

							}
, 							{
								"box" : 								{
									"fontname" : "Arial",
									"fontsize" : 12.0,
									"id" : "obj-8",
									"maxclass" : "message",
									"numinlets" : 2,
									"numoutlets" : 1,
									"outlettype" : [ "" ],
									"patching_rect" : [ 50.0, 124.914307, 34.0, 22.0 ],
									"style" : "",
									"text" : "path"
								}

							}
, 							{
								"box" : 								{
									"fontname" : "Arial",
									"fontsize" : 12.0,
									"id" : "obj-2",
									"maxclass" : "newobj",
									"numinlets" : 1,
									"numoutlets" : 2,
									"outlettype" : [ "", "" ],
									"patching_rect" : [ 50.0, 148.0, 69.0, 22.0 ],
									"save" : [ "#N", "thispatcher", ";", "#Q", "end", ";" ],
									"style" : "",
									"text" : "thispatcher"
								}

							}
 ],
						"lines" : [ 							{
								"patchline" : 								{
									"destination" : [ "obj-8", 0 ],
									"source" : [ "obj-10", 0 ]
								}

							}
, 							{
								"patchline" : 								{
									"destination" : [ "obj-16", 0 ],
									"order" : 1,
									"source" : [ "obj-12", 0 ]
								}

							}
, 							{
								"patchline" : 								{
									"destination" : [ "obj-4", 1 ],
									"order" : 0,
									"source" : [ "obj-12", 0 ]
								}

							}
, 							{
								"patchline" : 								{
									"destination" : [ "obj-13", 0 ],
									"source" : [ "obj-16", 0 ]
								}

							}
, 							{
								"patchline" : 								{
									"destination" : [ "obj-6", 0 ],
									"source" : [ "obj-2", 1 ]
								}

							}
, 							{
								"patchline" : 								{
									"destination" : [ "obj-11", 0 ],
									"source" : [ "obj-3", 0 ]
								}

							}
, 							{
								"patchline" : 								{
									"destination" : [ "obj-11", 0 ],
									"order" : 1,
									"source" : [ "obj-6", 0 ]
								}

							}
, 							{
								"patchline" : 								{
									"destination" : [ "obj-3", 1 ],
									"order" : 0,
									"source" : [ "obj-6", 0 ]
								}

							}
, 							{
								"patchline" : 								{
									"destination" : [ "obj-2", 0 ],
									"source" : [ "obj-8", 0 ]
								}

							}
 ]
					}
,
					"patching_rect" : [ 630.0, 75.000023, 36.0, 22.0 ],
					"saved_object_attributes" : 					{
						"description" : "",
						"digest" : "",
						"globalpatchername" : "",
						"style" : "",
						"tags" : ""
					}
,
					"style" : "",
					"text" : "p init"
				}

			}
, 			{
				"box" : 				{
					"id" : "obj-2",
					"maxclass" : "live.tab",
					"num_lines_patching" : 2,
					"num_lines_presentation" : 1,
					"numinlets" : 1,
					"numoutlets" : 3,
					"outlettype" : [ "", "", "float" ],
					"parameter_enable" : 1,
					"patching_rect" : [ 465.0, 135.000015, 60.0, 35.0 ],
					"presentation" : 1,
					"presentation_rect" : [ 210.0, 30.0, 100.0, 20.0 ],
					"saved_attribute_attributes" : 					{
						"valueof" : 						{
							"parameter_longname" : "live.tab[3]",
							"parameter_shortname" : "live.tab[3]",
							"parameter_type" : 2,
							"parameter_enum" : [ "webcam", "USB" ],
							"parameter_unitstyle" : 0
						}

					}
,
					"varname" : "live.tab[2]"
				}

			}
, 			{
				"box" : 				{
					"id" : "obj-78",
					"maxclass" : "comment",
					"numinlets" : 1,
					"numoutlets" : 0,
					"patching_rect" : [ -75.000008, 630.0, 60.0, 20.0 ],
					"presentation" : 1,
					"presentation_rect" : [ 330.0, 15.0, 60.0, 20.0 ],
					"style" : "",
					"text" : "preview"
				}

			}
, 			{
				"box" : 				{
					"id" : "obj-76",
					"maxclass" : "newobj",
					"numinlets" : 3,
					"numoutlets" : 1,
					"outlettype" : [ "" ],
					"patching_rect" : [ 14.999991, 795.0, 60.0, 22.0 ],
					"style" : "",
					"text" : "switch"
				}

			}
, 			{
				"box" : 				{
					"id" : "obj-70",
					"maxclass" : "newobj",
					"numinlets" : 3,
					"numoutlets" : 3,
					"outlettype" : [ "bang", "bang", "" ],
					"patching_rect" : [ 300.0, 135.000015, 135.0, 22.0 ],
					"style" : "",
					"text" : "sel 0 1"
				}

			}
, 			{
				"box" : 				{
					"id" : "obj-69",
					"maxclass" : "message",
					"numinlets" : 2,
					"numoutlets" : 1,
					"outlettype" : [ "" ],
					"patching_rect" : [ 300.0, 180.000015, 39.0, 22.0 ],
					"style" : "",
					"text" : "close"
				}

			}
, 			{
				"box" : 				{
					"id" : "obj-62",
					"linecount" : 2,
					"maxclass" : "message",
					"numinlets" : 2,
					"numoutlets" : 1,
					"outlettype" : [ "" ],
					"patching_rect" : [ -75.000008, 780.0, 75.0, 35.0 ],
					"style" : "",
					"text" : "visible $1, floating $1"
				}

			}
, 			{
				"box" : 				{
					"id" : "obj-44",
					"maxclass" : "newobj",
					"numinlets" : 2,
					"numoutlets" : 1,
					"outlettype" : [ "int" ],
					"patching_rect" : [ -75.000008, 750.0, 29.5, 22.0 ],
					"style" : "",
					"text" : "> 0"
				}

			}
, 			{
				"box" : 				{
					"id" : "obj-40",
					"maxclass" : "live.tab",
					"num_lines_patching" : 3,
					"num_lines_presentation" : 3,
					"numinlets" : 1,
					"numoutlets" : 3,
					"outlettype" : [ "", "", "float" ],
					"parameter_enable" : 1,
					"patching_rect" : [ -75.000008, 660.0, 60.0, 60.0 ],
					"presentation" : 1,
					"presentation_rect" : [ 330.0, 45.0, 60.0, 60.0 ],
					"saved_attribute_attributes" : 					{
						"valueof" : 						{
							"parameter_longname" : "live.tab[2]",
							"parameter_shortname" : "live.tab[2]",
							"parameter_type" : 2,
							"parameter_enum" : [ "off", "direct", "processed" ],
							"parameter_unitstyle" : 0
						}

					}
,
					"varname" : "live.tab"
				}

			}
, 			{
				"box" : 				{
					"id" : "obj-38",
					"maxclass" : "comment",
					"numinlets" : 1,
					"numoutlets" : 0,
					"patching_rect" : [ 540.0, 135.000015, 60.0, 20.0 ],
					"presentation" : 1,
					"presentation_rect" : [ 210.0, 15.0, 60.0, 20.0 ],
					"style" : "",
					"text" : "vdevice"
				}

			}
, 			{
				"box" : 				{
					"id" : "obj-6",
					"maxclass" : "message",
					"numinlets" : 2,
					"numoutlets" : 1,
					"outlettype" : [ "" ],
					"patching_rect" : [ 465.0, 180.000015, 69.0, 22.0 ],
					"style" : "",
					"text" : "vdevice $1"
				}

			}
, 			{
				"box" : 				{
					"id" : "obj-9",
					"maxclass" : "message",
					"numinlets" : 2,
					"numoutlets" : 1,
					"outlettype" : [ "" ],
					"patching_rect" : [ 360.0, 180.000015, 37.0, 22.0 ],
					"style" : "",
					"text" : "open"
				}

			}
, 			{
				"box" : 				{
					"id" : "obj-1",
					"maxclass" : "newobj",
					"numinlets" : 1,
					"numoutlets" : 2,
					"outlettype" : [ "jit_matrix", "" ],
					"patching_rect" : [ 300.0, 225.000015, 210.0, 22.0 ],
					"style" : "",
					"text" : "jit.grab @output_texture 1 @unique 1"
				}

			}
, 			{
				"box" : 				{
					"id" : "obj-32",
					"maxclass" : "newobj",
					"numinlets" : 1,
					"numoutlets" : 0,
					"patching_rect" : [ -75.000008, 885.0, 79.0, 22.0 ],
					"style" : "",
					"text" : "s drawbang_"
				}

			}
, 			{
				"box" : 				{
					"id" : "obj-46",
					"maxclass" : "newobj",
					"numinlets" : 1,
					"numoutlets" : 1,
					"outlettype" : [ "" ],
					"patching_rect" : [ 300.0, 855.0, 98.0, 22.0 ],
					"style" : "",
					"text" : "vexpr ($f1 / 255)"
				}

			}
, 			{
				"box" : 				{
					"args" : [ "scale" ],
					"bgmode" : 0,
					"border" : 0,
					"clickthrough" : 0,
					"enablehscroll" : 0,
					"enablevscroll" : 0,
					"id" : "obj-66",
					"lockeddragscroll" : 0,
					"maxclass" : "bpatcher",
					"name" : "gl_rota.module.maxpat",
					"numinlets" : 1,
					"numoutlets" : 2,
					"offset" : [ 0.0, 0.0 ],
					"outlettype" : [ "", "" ],
					"patching_rect" : [ 300.0, 285.000031, 300.0, 105.0 ],
					"presentation" : 1,
					"presentation_rect" : [ 15.0, 135.0, 300.0, 105.0 ],
					"viewvisibility" : 1
				}

			}
, 			{
				"box" : 				{
					"args" : [ "cue_manager" ],
					"bgmode" : 0,
					"border" : 0,
					"clickthrough" : 0,
					"enablehscroll" : 0,
					"enablevscroll" : 0,
					"id" : "obj-50",
					"lockeddragscroll" : 0,
					"maxclass" : "bpatcher",
					"name" : "cue_manager.module.maxpat",
					"numinlets" : 1,
					"numoutlets" : 1,
					"offset" : [ 0.0, 0.0 ],
					"outlettype" : [ "" ],
					"patching_rect" : [ 630.0, 105.000023, 300.0, 175.0 ],
					"presentation_rect" : [ 0.0, 0.0, 300.0, 175.0 ],
					"viewvisibility" : 1
				}

			}
, 			{
				"box" : 				{
					"contdata" : 1,
					"id" : "obj-18",
					"maxclass" : "multislider",
					"numinlets" : 1,
					"numoutlets" : 2,
					"outlettype" : [ "", "" ],
					"parameter_enable" : 1,
					"patching_rect" : [ 119.999992, 1035.0, 165.0, 75.0 ],
					"presentation" : 1,
					"presentation_rect" : [ 15.0, 60.0, 240.0, 75.0 ],
					"saved_attribute_attributes" : 					{
						"valueof" : 						{
							"parameter_longname" : "multislider",
							"parameter_shortname" : "multislider",
							"parameter_type" : 3,
							"parameter_invisible" : 1
						}

					}
,
					"setminmax" : [ 0.0, 1.0 ],
					"setstyle" : 1,
					"settype" : 0,
					"size" : 8,
					"style" : "",
					"varname" : "multislider"
				}

			}
, 			{
				"box" : 				{
					"args" : [ "gl_motion" ],
					"bgmode" : 0,
					"border" : 0,
					"clickthrough" : 0,
					"enablehscroll" : 0,
					"enablevscroll" : 0,
					"id" : "obj-34",
					"lockeddragscroll" : 0,
					"maxclass" : "bpatcher",
					"name" : "gl_motion.module.maxpat",
					"numinlets" : 1,
					"numoutlets" : 2,
					"offset" : [ 0.0, 0.0 ],
					"outlettype" : [ "", "" ],
					"patching_rect" : [ 300.0, 660.0, 300.0, 105.0 ],
					"presentation_rect" : [ 0.0, 0.0, 300.0, 105.0 ],
					"viewvisibility" : 1
				}

			}
, 			{
				"box" : 				{
					"id" : "obj-52",
					"maxclass" : "newobj",
					"numinlets" : 1,
					"numoutlets" : 1,
					"outlettype" : [ "jit_matrix" ],
					"patching_rect" : [ 300.0, 795.0, 142.0, 22.0 ],
					"style" : "",
					"text" : "j.gl_readback% 3 3 luma"
				}

			}
, 			{
				"box" : 				{
					"id" : "obj-23",
					"maxclass" : "toggle",
					"numinlets" : 1,
					"numoutlets" : 1,
					"outlettype" : [ "int" ],
					"parameter_enable" : 1,
					"patching_rect" : [ 89.999992, 795.0, 24.0, 24.0 ],
					"saved_attribute_attributes" : 					{
						"valueof" : 						{
							"parameter_longname" : "toggle[1]",
							"parameter_shortname" : "toggle[1]",
							"parameter_type" : 3,
							"parameter_invisible" : 1
						}

					}
,
					"style" : "",
					"varname" : "toggle[1]"
				}

			}
, 			{
				"box" : 				{
					"id" : "obj-20",
					"maxclass" : "newobj",
					"numinlets" : 1,
					"numoutlets" : 3,
					"outlettype" : [ "", "bang", "" ],
					"patching_rect" : [ -75.000008, 840.0, 214.0, 22.0 ],
					"style" : "",
					"text" : "jit.world default @enable 1 @shared 1"
				}

			}
, 			{
				"box" : 				{
					"args" : [ "brcosa1" ],
					"bgmode" : 0,
					"border" : 0,
					"clickthrough" : 0,
					"enablehscroll" : 0,
					"enablevscroll" : 0,
					"id" : "obj-16",
					"lockeddragscroll" : 0,
					"maxclass" : "bpatcher",
					"name" : "gl_cc_brcosa.module.maxpat",
					"numinlets" : 2,
					"numoutlets" : 2,
					"offset" : [ 0.0, 0.0 ],
					"outlettype" : [ "", "" ],
					"patching_rect" : [ 705.0, 915.0, 300.0, 70.0 ],
					"presentation_rect" : [ 0.0, 0.0, 300.0, 70.0 ],
					"viewvisibility" : 1
				}

			}
, 			{
				"box" : 				{
					"activebgcolor" : [ 0.769065, 0.826823, 0.881053, 1.0 ],
					"activebgoncolor" : [ 1.0, 0.248104, 0.0, 0.86 ],
					"bgcolor" : [ 0.798891, 0.858889, 0.915222, 1.0 ],
					"id" : "obj-57",
					"maxclass" : "live.tab",
					"num_lines_patching" : 1,
					"num_lines_presentation" : 1,
					"numinlets" : 1,
					"numoutlets" : 3,
					"outlettype" : [ "", "", "float" ],
					"parameter_enable" : 1,
					"patching_rect" : [ 330.0, 555.0, 112.0, 21.0 ],
					"presentation" : 1,
					"presentation_rect" : [ 15.0, 35.0, 143.0, 20.0 ],
					"rounded" : 4.0,
					"saved_attribute_attributes" : 					{
						"valueof" : 						{
							"parameter_longname" : "live.tab[1]",
							"parameter_shortname" : "live.tab",
							"parameter_type" : 2,
							"parameter_enum" : [ "presence", "motion" ],
							"parameter_unitstyle" : 0
						}

					}
,
					"varname" : "live.tab[1]"
				}

			}
, 			{
				"box" : 				{
					"fontname" : "Arial",
					"fontsize" : 12.0,
					"id" : "obj-35",
					"maxclass" : "comment",
					"numinlets" : 1,
					"numoutlets" : 0,
					"patching_rect" : [ 330.0, 105.000023, 90.0, 20.0 ],
					"presentation" : 1,
					"presentation_rect" : [ 45.0, 10.0, 75.0, 20.0 ],
					"style" : "",
					"text" : "camera on"
				}

			}
, 			{
				"box" : 				{
					"id" : "obj-31",
					"maxclass" : "toggle",
					"numinlets" : 1,
					"numoutlets" : 1,
					"outlettype" : [ "int" ],
					"parameter_enable" : 1,
					"patching_rect" : [ 300.0, 105.000023, 20.0, 20.0 ],
					"presentation" : 1,
					"presentation_rect" : [ 15.0, 10.0, 20.0, 20.0 ],
					"saved_attribute_attributes" : 					{
						"valueof" : 						{
							"parameter_longname" : "toggle",
							"parameter_shortname" : "toggle",
							"parameter_type" : 3,
							"parameter_invisible" : 1
						}

					}
,
					"style" : "",
					"varname" : "toggle"
				}

			}
, 			{
				"box" : 				{
					"fontname" : "Arial",
					"fontsize" : 12.0,
					"id" : "obj-14",
					"maxclass" : "newobj",
					"numinlets" : 1,
					"numoutlets" : 2,
					"outlettype" : [ "", "" ],
					"patching_rect" : [ 300.0, 825.0, 43.0, 22.0 ],
					"style" : "",
					"text" : "jit.spill"
				}

			}
 ],
		"lines" : [ 			{
				"patchline" : 				{
					"destination" : [ "obj-66", 0 ],
					"order" : 1,
					"source" : [ "obj-1", 0 ]
				}

			}
, 			{
				"patchline" : 				{
					"destination" : [ "obj-76", 1 ],
					"midpoints" : [ 309.5, 249.0, 44.999992, 249.0 ],
					"order" : 0,
					"source" : [ "obj-1", 0 ]
				}

			}
, 			{
				"patchline" : 				{
					"destination" : [ "obj-16", 0 ],
					"source" : [ "obj-13", 0 ]
				}

			}
, 			{
				"patchline" : 				{
					"destination" : [ "obj-46", 0 ],
					"source" : [ "obj-14", 0 ]
				}

			}
, 			{
				"patchline" : 				{
					"destination" : [ "obj-12", 0 ],
					"source" : [ "obj-16", 0 ]
				}

			}
, 			{
				"patchline" : 				{
					"destination" : [ "obj-24", 0 ],
					"source" : [ "obj-17", 0 ]
				}

			}
, 			{
				"patchline" : 				{
					"destination" : [ "obj-29", 0 ],
					"source" : [ "obj-19", 0 ]
				}

			}
, 			{
				"patchline" : 				{
					"destination" : [ "obj-6", 0 ],
					"source" : [ "obj-2", 0 ]
				}

			}
, 			{
				"patchline" : 				{
					"destination" : [ "obj-32", 0 ],
					"midpoints" : [ 31.999992, 873.0, -65.500008, 873.0 ],
					"source" : [ "obj-20", 1 ]
				}

			}
, 			{
				"patchline" : 				{
					"destination" : [ "obj-11", 0 ],
					"source" : [ "obj-22", 0 ]
				}

			}
, 			{
				"patchline" : 				{
					"destination" : [ "obj-20", 0 ],
					"midpoints" : [ 99.499992, 829.0, -65.500008, 829.0 ],
					"source" : [ "obj-23", 0 ]
				}

			}
, 			{
				"patchline" : 				{
					"destination" : [ "obj-22", 0 ],
					"source" : [ "obj-24", 0 ]
				}

			}
, 			{
				"patchline" : 				{
					"destination" : [ "obj-34", 0 ],
					"midpoints" : [ 309.5, 499.5, 309.5, 499.5 ],
					"source" : [ "obj-26", 0 ]
				}

			}
, 			{
				"patchline" : 				{
					"destination" : [ "obj-2", 0 ],
					"source" : [ "obj-29", 0 ]
				}

			}
, 			{
				"patchline" : 				{
					"destination" : [ "obj-70", 0 ],
					"source" : [ "obj-31", 0 ]
				}

			}
, 			{
				"patchline" : 				{
					"destination" : [ "obj-10", 0 ],
					"midpoints" : [ 309.5, 779.5, 189.499985, 779.5 ],
					"order" : 2,
					"source" : [ "obj-34", 0 ]
				}

			}
, 			{
				"patchline" : 				{
					"destination" : [ "obj-13", 0 ],
					"midpoints" : [ 309.5, 779.5, 714.5, 779.5 ],
					"order" : 4,
					"source" : [ "obj-34", 0 ]
				}

			}
, 			{
				"patchline" : 				{
					"destination" : [ "obj-52", 0 ],
					"midpoints" : [ 309.5, 779.5, 309.5, 779.5 ],
					"order" : 1,
					"source" : [ "obj-34", 0 ]
				}

			}
, 			{
				"patchline" : 				{
					"destination" : [ "obj-54", 0 ],
					"midpoints" : [ 309.5, 779.5, 504.5, 779.5 ],
					"order" : 0,
					"source" : [ "obj-34", 0 ]
				}

			}
, 			{
				"patchline" : 				{
					"destination" : [ "obj-76", 2 ],
					"midpoints" : [ 309.5, 779.5, 65.499992, 779.5 ],
					"order" : 3,
					"source" : [ "obj-34", 0 ]
				}

			}
, 			{
				"patchline" : 				{
					"destination" : [ "obj-34", 0 ],
					"midpoints" : [ 339.5, 648.0, 309.5, 648.0 ],
					"source" : [ "obj-36", 0 ]
				}

			}
, 			{
				"patchline" : 				{
					"destination" : [ "obj-18", 0 ],
					"midpoints" : [ 309.5, 1023.0, 129.5, 1023.0 ],
					"source" : [ "obj-39", 0 ]
				}

			}
, 			{
				"patchline" : 				{
					"destination" : [ "obj-3", 0 ],
					"source" : [ "obj-4", 0 ]
				}

			}
, 			{
				"patchline" : 				{
					"destination" : [ "obj-44", 0 ],
					"order" : 1,
					"source" : [ "obj-40", 0 ]
				}

			}
, 			{
				"patchline" : 				{
					"destination" : [ "obj-76", 0 ],
					"midpoints" : [ -65.500008, 735.0, 24.499992, 735.0 ],
					"order" : 0,
					"source" : [ "obj-40", 0 ]
				}

			}
, 			{
				"patchline" : 				{
					"destination" : [ "obj-62", 0 ],
					"source" : [ "obj-44", 0 ]
				}

			}
, 			{
				"patchline" : 				{
					"destination" : [ "obj-47", 0 ],
					"source" : [ "obj-46", 0 ]
				}

			}
, 			{
				"patchline" : 				{
					"destination" : [ "obj-39", 0 ],
					"source" : [ "obj-47", 0 ]
				}

			}
, 			{
				"patchline" : 				{
					"destination" : [ "obj-36", 0 ],
					"source" : [ "obj-48", 0 ]
				}

			}
, 			{
				"patchline" : 				{
					"destination" : [ "obj-31", 0 ],
					"source" : [ "obj-5", 0 ]
				}

			}
, 			{
				"patchline" : 				{
					"destination" : [ "obj-14", 0 ],
					"source" : [ "obj-52", 0 ]
				}

			}
, 			{
				"patchline" : 				{
					"destination" : [ "obj-56", 0 ],
					"source" : [ "obj-54", 0 ]
				}

			}
, 			{
				"patchline" : 				{
					"destination" : [ "obj-58", 0 ],
					"source" : [ "obj-55", 0 ]
				}

			}
, 			{
				"patchline" : 				{
					"destination" : [ "obj-55", 0 ],
					"source" : [ "obj-56", 0 ]
				}

			}
, 			{
				"patchline" : 				{
					"destination" : [ "obj-48", 0 ],
					"source" : [ "obj-57", 0 ]
				}

			}
, 			{
				"patchline" : 				{
					"destination" : [ "obj-60", 0 ],
					"source" : [ "obj-58", 0 ]
				}

			}
, 			{
				"patchline" : 				{
					"destination" : [ "obj-1", 0 ],
					"midpoints" : [ 474.5, 213.0, 309.5, 213.0 ],
					"source" : [ "obj-6", 0 ]
				}

			}
, 			{
				"patchline" : 				{
					"destination" : [ "obj-61", 0 ],
					"source" : [ "obj-60", 0 ]
				}

			}
, 			{
				"patchline" : 				{
					"destination" : [ "obj-20", 0 ],
					"midpoints" : [ -65.500008, 828.0, -65.500008, 828.0 ],
					"source" : [ "obj-62", 0 ]
				}

			}
, 			{
				"patchline" : 				{
					"destination" : [ "obj-64", 0 ],
					"source" : [ "obj-63", 0 ]
				}

			}
, 			{
				"patchline" : 				{
					"destination" : [ "obj-17", 0 ],
					"midpoints" : [ 309.5, 402.5, 1074.5, 402.5 ],
					"order" : 1,
					"source" : [ "obj-66", 0 ]
				}

			}
, 			{
				"patchline" : 				{
					"destination" : [ "obj-26", 0 ],
					"order" : 0,
					"source" : [ "obj-66", 0 ]
				}

			}
, 			{
				"patchline" : 				{
					"destination" : [ "obj-1", 0 ],
					"source" : [ "obj-69", 0 ]
				}

			}
, 			{
				"patchline" : 				{
					"destination" : [ "obj-69", 0 ],
					"source" : [ "obj-70", 0 ]
				}

			}
, 			{
				"patchline" : 				{
					"destination" : [ "obj-9", 0 ],
					"source" : [ "obj-70", 1 ]
				}

			}
, 			{
				"patchline" : 				{
					"destination" : [ "obj-15", 0 ],
					"order" : 1,
					"source" : [ "obj-8", 0 ]
				}

			}
, 			{
				"patchline" : 				{
					"destination" : [ "obj-21", 0 ],
					"midpoints" : [ 1449.5, 258.0, 1614.5, 258.0 ],
					"order" : 0,
					"source" : [ "obj-8", 0 ]
				}

			}
, 			{
				"patchline" : 				{
					"destination" : [ "obj-1", 0 ],
					"midpoints" : [ 369.5, 213.0, 309.5, 213.0 ],
					"source" : [ "obj-9", 0 ]
				}

			}
 ],
		"parameters" : 		{
			"obj-31" : [ "toggle", "toggle", 0 ],
			"obj-22::obj-1::obj-29" : [ "live.text[10]", "live.text", 0 ],
			"obj-2" : [ "live.tab[3]", "live.tab[3]", 0 ],
			"obj-61" : [ "multislider[1]", "multislider", 0 ],
			"obj-34::obj-1::obj-17" : [ "live.text[8]", "live.text", 0 ],
			"obj-22::obj-1::obj-5" : [ "live.text[15]", "live.text", 0 ],
			"obj-34::obj-1::obj-29" : [ "live.text[5]", "live.text", 0 ],
			"obj-15::obj-1::obj-69" : [ "live.tab[4]", "live.tab", 0 ],
			"obj-34::obj-1::obj-35" : [ "live.text[2]", "live.text", 0 ],
			"obj-22::obj-1::obj-34" : [ "live.tab[5]", "live.tab", 0 ],
			"obj-40" : [ "live.tab[2]", "live.tab[2]", 0 ],
			"obj-22::obj-1::obj-12" : [ "live.text[14]", "live.text", 0 ],
			"obj-57" : [ "live.tab[1]", "live.tab", 0 ],
			"obj-22::obj-1::obj-35" : [ "live.text[12]", "live.text", 0 ],
			"obj-22::obj-1::obj-17" : [ "live.text[13]", "live.text", 0 ],
			"obj-34::obj-1::obj-5" : [ "live.text[7]", "live.text", 0 ],
			"obj-34::obj-1::obj-34" : [ "live.tab", "live.tab", 0 ],
			"obj-21::obj-1::obj-69" : [ "live.tab[13]", "live.tab", 0 ],
			"obj-18" : [ "multislider", "multislider", 0 ],
			"obj-22::obj-1::obj-47" : [ "live.text[11]", "live.text", 0 ],
			"obj-34::obj-1::obj-12" : [ "live.text[3]", "live.text", 0 ],
			"obj-15::obj-1::obj-39" : [ "live.text[9]", "live.text", 0 ],
			"obj-21::obj-1::obj-39" : [ "live.text", "live.text", 0 ],
			"obj-34::obj-1::obj-47" : [ "live.text[6]", "live.text", 0 ],
			"obj-23" : [ "toggle[1]", "toggle[1]", 0 ]
		}
,
		"dependency_cache" : [ 			{
				"name" : "gl_cc_brcosa.module.maxpat",
				"bootpath" : "~/Documents/GitHub/TML-depo/TML-code/VIDEO/stable/colour/gl_cc_brcosa",
				"patcherrelativepath" : "../../../../TML-depo/TML-code/VIDEO/stable/colour/gl_cc_brcosa",
				"type" : "JSON",
				"implicit" : 1
			}
, 			{
				"name" : "gl_cc_brcosa.model.maxpat",
				"bootpath" : "~/Documents/GitHub/TML-depo/TML-code/VIDEO/stable/colour/gl_cc_brcosa",
				"patcherrelativepath" : "../../../../TML-depo/TML-code/VIDEO/stable/colour/gl_cc_brcosa",
				"type" : "JSON",
				"implicit" : 1
			}
, 			{
				"name" : "j.gl_group_slab.model.maxpat",
				"bootpath" : "~/Documents/Max 7/Packages/Jamoma/patchers/components/openGL",
				"patcherrelativepath" : "../../../../../Max 7/Packages/Jamoma/patchers/components/openGL",
				"type" : "JSON",
				"implicit" : 1
			}
, 			{
				"name" : "gl_cc_brcosa.view.maxpat",
				"bootpath" : "~/Documents/GitHub/TML-depo/TML-code/VIDEO/stable/colour/gl_cc_brcosa",
				"patcherrelativepath" : "../../../../TML-depo/TML-code/VIDEO/stable/colour/gl_cc_brcosa",
				"type" : "JSON",
				"implicit" : 1
			}
, 			{
				"name" : "j.gl_group_slab.panel.maxpat",
				"bootpath" : "~/Documents/Max 7/Packages/Jamoma/patchers/components/openGL",
				"patcherrelativepath" : "../../../../../Max 7/Packages/Jamoma/patchers/components/openGL",
				"type" : "JSON",
				"implicit" : 1
			}
, 			{
				"name" : "j.gl_group_slab.view.maxpat",
				"bootpath" : "~/Documents/Max 7/Packages/Jamoma/patchers/components/openGL",
				"patcherrelativepath" : "../../../../../Max 7/Packages/Jamoma/patchers/components/openGL",
				"type" : "JSON",
				"implicit" : 1
			}
, 			{
				"name" : "j.list2parameter.maxpat",
				"bootpath" : "~/Documents/Max 7/Packages/Jamoma/patchers/components/data/list2parameter",
				"patcherrelativepath" : "../../../../../Max 7/Packages/Jamoma/patchers/components/data/list2parameter",
				"type" : "JSON",
				"implicit" : 1
			}
, 			{
				"name" : "j.gl_readback%.maxpat",
				"bootpath" : "~/Documents/GitHub/TML-depo/TML-code/VIDEO/stable/utility/gl_readback%",
				"patcherrelativepath" : "../../../../TML-depo/TML-code/VIDEO/stable/utility/gl_readback%",
				"type" : "JSON",
				"implicit" : 1
			}
, 			{
				"name" : "gl_motion.module.maxpat",
				"bootpath" : "~/Documents/GitHub/TML-depo/TML-code/VIDEO/stable/capture_preprocess/gl_motion",
				"patcherrelativepath" : "../../../../TML-depo/TML-code/VIDEO/stable/capture_preprocess/gl_motion",
				"type" : "JSON",
				"implicit" : 1
			}
, 			{
				"name" : "gl_motion.model.maxpat",
				"bootpath" : "~/Documents/GitHub/TML-depo/TML-code/VIDEO/stable/capture_preprocess/gl_motion",
				"patcherrelativepath" : "../../../../TML-depo/TML-code/VIDEO/stable/capture_preprocess/gl_motion",
				"type" : "JSON",
				"implicit" : 1
			}
, 			{
				"name" : "j.gl_rgb2luma%.maxpat",
				"bootpath" : "~/Documents/GitHub/TML-depo/TML-code/VIDEO/stable/utility/gl_rgb2luma%",
				"patcherrelativepath" : "../../../../TML-depo/TML-code/VIDEO/stable/utility/gl_rgb2luma%",
				"type" : "JSON",
				"implicit" : 1
			}
, 			{
				"name" : "gl_cf_gaussian_2p.model.maxpat",
				"bootpath" : "~/Documents/GitHub/TML-depo/TML-code/VIDEO/stable/convolution_and_blur/gl_cf_gaussian_2p",
				"patcherrelativepath" : "../../../../TML-depo/TML-code/VIDEO/stable/convolution_and_blur/gl_cf_gaussian_2p",
				"type" : "JSON",
				"implicit" : 1
			}
, 			{
				"name" : "gl_pix_thresh.model.maxpat",
				"bootpath" : "~/Documents/GitHub/TML-depo/TML-code/VIDEO/stable/math/gl_pix_thresh",
				"patcherrelativepath" : "../../../../TML-depo/TML-code/VIDEO/stable/math/gl_pix_thresh",
				"type" : "JSON",
				"implicit" : 1
			}
, 			{
				"name" : "gl_pix_roberts.model.maxpat",
				"bootpath" : "~/Documents/GitHub/TML-depo/TML-code/VIDEO/stable/edge/gl_pix_roberts",
				"patcherrelativepath" : "../../../../TML-depo/TML-code/VIDEO/stable/edge/gl_pix_roberts",
				"type" : "JSON",
				"implicit" : 1
			}
, 			{
				"name" : "gl_pix_sobel.model.maxpat",
				"bootpath" : "~/Documents/GitHub/TML-depo/TML-code/VIDEO/stable/edge/gl_pix_sobel",
				"patcherrelativepath" : "../../../../TML-depo/TML-code/VIDEO/stable/edge/gl_pix_sobel",
				"type" : "JSON",
				"implicit" : 1
			}
, 			{
				"name" : "j.gl_mean%.maxpat",
				"bootpath" : "~/Documents/GitHub/TML-depo/TML-code/VIDEO/stable/utility/j.gl_mean%",
				"patcherrelativepath" : "../../../../TML-depo/TML-code/VIDEO/stable/utility/j.gl_mean%",
				"type" : "JSON",
				"implicit" : 1
			}
, 			{
				"name" : "gl_pix_slide.model.maxpat",
				"bootpath" : "~/Documents/GitHub/TML-depo/TML-code/VIDEO/stable/temporal/gl_pix_slide",
				"patcherrelativepath" : "../../../../TML-depo/TML-code/VIDEO/stable/temporal/gl_pix_slide",
				"type" : "JSON",
				"implicit" : 1
			}
, 			{
				"name" : "j.sum%.maxpat",
				"bootpath" : "~/Documents/Max 7/Packages/Jamoma/patchers/components/video/sum%",
				"patcherrelativepath" : "../../../../../Max 7/Packages/Jamoma/patchers/components/video/sum%",
				"type" : "JSON",
				"implicit" : 1
			}
, 			{
				"name" : "gl_motion.view.maxpat",
				"bootpath" : "~/Documents/GitHub/TML-depo/TML-code/VIDEO/stable/capture_preprocess/gl_motion",
				"patcherrelativepath" : "../../../../TML-depo/TML-code/VIDEO/stable/capture_preprocess/gl_motion",
				"type" : "JSON",
				"implicit" : 1
			}
, 			{
				"name" : "cue_manager.module.maxpat",
				"bootpath" : "~/Documents/Max 7/Packages/Jamoma/patchers/models/data/cue_manager",
				"patcherrelativepath" : "../../../../../Max 7/Packages/Jamoma/patchers/models/data/cue_manager",
				"type" : "JSON",
				"implicit" : 1
			}
, 			{
				"name" : "cue_manager.model.maxpat",
				"bootpath" : "~/Documents/Max 7/Packages/Jamoma/patchers/models/data/cue_manager",
				"patcherrelativepath" : "../../../../../Max 7/Packages/Jamoma/patchers/models/data/cue_manager",
				"type" : "JSON",
				"implicit" : 1
			}
, 			{
				"name" : "cue_manager.view.maxpat",
				"bootpath" : "~/Documents/Max 7/Packages/Jamoma/patchers/models/data/cue_manager",
				"patcherrelativepath" : "../../../../../Max 7/Packages/Jamoma/patchers/models/data/cue_manager",
				"type" : "JSON",
				"implicit" : 1
			}
, 			{
				"name" : "thru.maxpat",
				"bootpath" : "C74:/patchers/m4l/Pluggo for Live resources/patches",
				"type" : "JSON",
				"implicit" : 1
			}
, 			{
				"name" : "j.datetime.maxpat",
				"bootpath" : "~/Documents/Max 7/Packages/Jamoma/patchers/components/data/datetime",
				"patcherrelativepath" : "../../../../../Max 7/Packages/Jamoma/patchers/components/data/datetime",
				"type" : "JSON",
				"implicit" : 1
			}
, 			{
				"name" : "j.namespace_selector.maxpat",
				"bootpath" : "~/Documents/Max 7/Packages/Jamoma/patchers/components/namespace/namespace_selector",
				"patcherrelativepath" : "../../../../../Max 7/Packages/Jamoma/patchers/components/namespace/namespace_selector",
				"type" : "JSON",
				"implicit" : 1
			}
, 			{
				"name" : "gl_rota.module.maxpat",
				"bootpath" : "~/Documents/Max 7/Packages/Jamoma/patchers/models/openGL/texture/gl_rota",
				"patcherrelativepath" : "../../../../../Max 7/Packages/Jamoma/patchers/models/openGL/texture/gl_rota",
				"type" : "JSON",
				"implicit" : 1
			}
, 			{
				"name" : "gl_rota.model.maxpat",
				"bootpath" : "~/Documents/Max 7/Packages/Jamoma/patchers/models/openGL/texture/gl_rota",
				"patcherrelativepath" : "../../../../../Max 7/Packages/Jamoma/patchers/models/openGL/texture/gl_rota",
				"type" : "JSON",
				"implicit" : 1
			}
, 			{
				"name" : "gl_rota.view.maxpat",
				"bootpath" : "~/Documents/Max 7/Packages/Jamoma/patchers/models/openGL/texture/gl_rota",
				"patcherrelativepath" : "../../../../../Max 7/Packages/Jamoma/patchers/models/openGL/texture/gl_rota",
				"type" : "JSON",
				"implicit" : 1
			}
, 			{
				"name" : "j.initialized.maxpat",
				"bootpath" : "~/Documents/Max 7/Packages/Jamoma/patchers/components/data/initialized",
				"patcherrelativepath" : "../../../../../Max 7/Packages/Jamoma/patchers/components/data/initialized",
				"type" : "JSON",
				"implicit" : 1
			}
, 			{
				"name" : "j.nav.scale.module.maxpat",
				"bootpath" : "~/Documents/GitHub/Nav/Jamoma-v1/j.nav.scale",
				"patcherrelativepath" : "../../../../Nav/Jamoma-v1/j.nav.scale",
				"type" : "JSON",
				"implicit" : 1
			}
, 			{
				"name" : "j.nav.scale.model.maxpat",
				"bootpath" : "~/Documents/GitHub/Nav/Jamoma-v1/j.nav.scale",
				"patcherrelativepath" : "../../../../Nav/Jamoma-v1/j.nav.scale",
				"type" : "JSON",
				"implicit" : 1
			}
, 			{
				"name" : "j.autoscale.maxpat",
				"bootpath" : "~/Documents/Max 7/Packages/Jamoma/patchers/components/data/autoscale",
				"patcherrelativepath" : "../../../../../Max 7/Packages/Jamoma/patchers/components/data/autoscale",
				"type" : "JSON",
				"implicit" : 1
			}
, 			{
				"name" : "j.qom.maxpat",
				"bootpath" : "~/Documents/Max 7/Packages/Jamoma/patchers/components/data/qom",
				"patcherrelativepath" : "../../../../../Max 7/Packages/Jamoma/patchers/components/data/qom",
				"type" : "JSON",
				"implicit" : 1
			}
, 			{
				"name" : "j.nav.scale.view.maxpat",
				"bootpath" : "~/Documents/GitHub/Nav/Jamoma-v1/j.nav.scale",
				"patcherrelativepath" : "../../../../Nav/Jamoma-v1/j.nav.scale",
				"type" : "JSON",
				"implicit" : 1
			}
, 			{
				"name" : "j.model.mxo",
				"type" : "iLaX"
			}
, 			{
				"name" : "j.in.mxo",
				"type" : "iLaX"
			}
, 			{
				"name" : "j.out.mxo",
				"type" : "iLaX"
			}
, 			{
				"name" : "j.parameter.mxo",
				"type" : "iLaX"
			}
, 			{
				"name" : "j.receive.mxo",
				"type" : "iLaX"
			}
, 			{
				"name" : "j.ui.mxo",
				"type" : "iLaX"
			}
, 			{
				"name" : "j.view.mxo",
				"type" : "iLaX"
			}
, 			{
				"name" : "j.remote.mxo",
				"type" : "iLaX"
			}
, 			{
				"name" : "j.return.mxo",
				"type" : "iLaX"
			}
, 			{
				"name" : "j.send.mxo",
				"type" : "iLaX"
			}
, 			{
				"name" : "j.init.mxo",
				"type" : "iLaX"
			}
, 			{
				"name" : "j.cue.mxo",
				"type" : "iLaX"
			}
, 			{
				"name" : "j.message.mxo",
				"type" : "iLaX"
			}
, 			{
				"name" : "j.namespace.mxo",
				"type" : "iLaX"
			}
, 			{
				"name" : "j.unit.mxo",
				"type" : "iLaX"
			}
, 			{
				"name" : "j.oscroute.mxo",
				"type" : "iLaX"
			}
, 			{
				"name" : "j.stats.mxo",
				"type" : "iLaX"
			}
, 			{
				"name" : "j.pass.mxo",
				"type" : "iLaX"
			}
, 			{
				"name" : "j.map.mxo",
				"type" : "iLaX"
			}
, 			{
				"name" : "j.delta.mxo",
				"type" : "iLaX"
			}
 ],
		"autosave" : 0
	}

}
